<?xml version="1.0" encoding="UTF-8" standalone="no"?>
<!DOCTYPE svg PUBLIC "-//W3C//DTD SVG 1.1//EN"
 "http://www.w3.org/Graphics/SVG/1.1/DTD/svg11.dtd">
<!-- Generated by graphviz version 2.49.1 (20210923.0004)
 -->
<!-- Title: deps_tree Pages: 1 -->
<svg width="353pt" height="332pt"
 viewBox="0.00 0.00 352.69 332.00" xmlns="http://www.w3.org/2000/svg" xmlns:xlink="http://www.w3.org/1999/xlink">
<g id="graph0" class="graph" transform="scale(1 1) rotate(0) translate(4 328)">
<title>deps_tree</title>
<polygon fill="white" stroke="transparent" points="-4,4 -4,-328 348.69,-328 348.69,4 -4,4"/>
<!-- parent1 -->
<g id="node1" class="node">
<title>parent1</title>
<ellipse fill="bisque" stroke="black" cx="172.35" cy="-234" rx="74.19" ry="18"/>
<text text-anchor="middle" x="172.35" y="-230.3" font-family="Times,serif" font-size="14.00">父项目的父项目</text>
</g>
<!-- parent2 -->
<g id="node2" class="node">
<title>parent2</title>
<ellipse fill="bisque" stroke="black" cx="172.35" cy="-306" rx="37.89" ry="18"/>
<text text-anchor="middle" x="172.35" y="-302.3" font-family="Times,serif" font-size="14.00">父项目</text>
</g>
<!-- parent1&#45;&gt;parent2 -->
<g id="edge2" class="edge">
<title>parent1&#45;&gt;parent2</title>
<path fill="none" stroke="black" d="M172.35,-252.3C172.35,-260.02 172.35,-269.29 172.35,-277.89"/>
<polygon fill="black" stroke="black" points="168.85,-277.9 172.35,-287.9 175.85,-277.9 168.85,-277.9"/>
</g>
<!-- project -->
<g id="node3" class="node">
<title>project</title>
<ellipse fill="yellow" stroke="black" cx="172.35" cy="-162" rx="46.59" ry="18"/>
<text text-anchor="middle" x="172.35" y="-158.3" font-family="Times,serif" font-size="14.00">当前项目</text>
</g>
<!-- project&#45;&gt;parent1 -->
<g id="edge1" class="edge">
<title>project&#45;&gt;parent1</title>
<path fill="none" stroke="black" d="M172.35,-180.3C172.35,-188.02 172.35,-197.29 172.35,-205.89"/>
<polygon fill="black" stroke="black" points="168.85,-205.9 172.35,-215.9 175.85,-205.9 168.85,-205.9"/>
</g>
<!-- deps1 -->
<g id="node4" class="node">
<title>deps1</title>
<ellipse fill="#cdc8b1" stroke="black" cx="51.35" cy="-90" rx="51.19" ry="18"/>
<text text-anchor="middle" x="51.35" y="-86.3" font-family="Times,serif" font-size="14.00">依赖项目1</text>
</g>
<!-- deps1&#45;&gt;project -->
<g id="edge3" class="edge">
<title>deps1&#45;&gt;project</title>
<path fill="none" stroke="black" d="M76.71,-105.67C94.66,-116.06 118.92,-130.09 138.51,-141.43"/>
<polygon fill="black" stroke="black" points="137.02,-144.61 147.43,-146.58 140.52,-138.55 137.02,-144.61"/>
</g>
<!-- deps2 -->
<g id="node5" class="node">
<title>deps2</title>
<ellipse fill="#cdc8b1" stroke="black" cx="172.35" cy="-90" rx="51.19" ry="18"/>
<text text-anchor="middle" x="172.35" y="-86.3" font-family="Times,serif" font-size="14.00">依赖项目2</text>
</g>
<!-- deps2&#45;&gt;project -->
<g id="edge4" class="edge">
<title>deps2&#45;&gt;project</title>
<path fill="none" stroke="black" d="M172.35,-108.3C172.35,-116.02 172.35,-125.29 172.35,-133.89"/>
<polygon fill="black" stroke="black" points="168.85,-133.9 172.35,-143.9 175.85,-133.9 168.85,-133.9"/>
</g>
<!-- deps3 -->
<g id="node6" class="node">
<title>deps3</title>
<ellipse fill="#cdc8b1" stroke="black" cx="293.35" cy="-90" rx="51.19" ry="18"/>
<text text-anchor="middle" x="293.35" y="-86.3" font-family="Times,serif" font-size="14.00">依赖项目3</text>
</g>
<!-- deps3&#45;&gt;project -->
<g id="edge5" class="edge">
<title>deps3&#45;&gt;project</title>
<path fill="none" stroke="black" d="M267.98,-105.67C250.03,-116.06 225.77,-130.09 206.18,-141.43"/>
<polygon fill="black" stroke="black" points="204.17,-138.55 197.26,-146.58 207.67,-144.61 204.17,-138.55"/>
</g>
<!-- deps4 -->
<g id="node7" class="node">
<title>deps4</title>
<ellipse fill="#cdc8b1" stroke="black" cx="172.35" cy="-18" rx="51.19" ry="18"/>
<text text-anchor="middle" x="172.35" y="-14.3" font-family="Times,serif" font-size="14.00">依赖项目4</text>
</g>
<!-- deps4&#45;&gt;deps2 -->
<g id="edge6" class="edge">
<title>deps4&#45;&gt;deps2</title>
<path fill="none" stroke="black" d="M172.35,-36.3C172.35,-44.02 172.35,-53.29 172.35,-61.89"/>
<polygon fill="black" stroke="black" points="168.85,-61.9 172.35,-71.9 175.85,-61.9 168.85,-61.9"/>
</g>
</g>
</svg>
